<svg width="54" height="54" viewBox="0 0 54 54" fill="none" xmlns="http://www.w3.org/2000/svg">
<path d="M38.2546 41.9269L41.9247 38.2567L35.6336 31.9656L31.9634 35.6357L38.2546 41.9269Z" fill="#6A5EB9"/>
<path fill-rule="evenodd" clip-rule="evenodd" d="M41.1083 20.5541C41.1083 31.9059 31.9059 41.1083 20.5541 41.1083C9.2024 41.1083 0 31.9059 0 20.5541C0 9.2024 9.2024 0 20.5541 0C31.9059 0 41.1083 9.2024 41.1083 20.5541ZM37.2771 20.5542C37.2771 29.79 29.79 37.2771 20.5542 37.2771C11.3184 37.2771 3.83125 29.79 3.83125 20.5542C3.83125 11.3183 11.3184 3.83124 20.5542 3.83124C29.79 3.83124 37.2771 11.3183 37.2771 20.5542Z" fill="#9584FF"/>
<path d="M40.7967 36.5881L36.588 40.7968C35.644 41.7408 35.644 43.2713 36.588 44.2154L45.6645 53.2919C46.6086 54.2359 48.1391 54.2359 49.0831 53.2919L53.2918 49.0832C54.2358 48.1392 54.2358 46.6086 53.2918 45.6646L44.2153 36.5881C43.2713 35.6441 41.7407 35.6441 40.7967 36.5881Z" fill="#556080"/>
<path d="M14.1269 21.8399H9.59601V29.5736H14.1269V21.8399Z" fill="#2F4859"/>
<path d="M21.7067 15.8828H17.1757V29.5749H21.7067V15.8828Z" fill="#58B794"/>
<path d="M29.2856 9.92578H24.7547V29.5714H29.2856V9.92578Z" fill="#D97DE8"/>
</svg>
