<svg width="54" height="54" viewBox="0 0 54 54" fill="none" xmlns="http://www.w3.org/2000/svg">
<path d="M27 52.2C41.4146 52.2 53.1 40.5146 53.1 26.1C53.1 11.6854 41.4146 0 27 0C12.5854 0 0.899994 11.6854 0.899994 26.1C0.899994 40.5146 12.5854 52.2 27 52.2Z" fill="#C3B9FF"/>
<path d="M27 54C12.1122 54 0 41.8878 0 27C0 19.8063 2.7963 13.0374 7.8741 7.9416C8.5752 7.2351 9.7164 7.2351 10.4193 7.9362C11.124 8.6382 11.1258 9.7776 10.4247 10.4814C6.0237 14.8995 3.6 20.7648 3.6 27C3.6 39.9033 14.0967 50.4 27 50.4C39.9033 50.4 50.4 39.9033 50.4 27C50.4 14.7033 40.8645 4.5909 28.8 3.6684V13.3497C28.8 14.3433 27.9936 15.1497 27 15.1497C26.0064 15.1497 25.2 14.3433 25.2 13.3497V1.8C25.2 0.8064 26.0064 0 27 0C41.8878 0 54 12.1122 54 27C54 41.8878 41.8878 54 27 54Z" fill="#6A5EB9"/>
<path d="M18 18.1089L29.6496 26.5356C30.7962 27.369 30.9267 29.0304 29.9241 30.033C28.9215 31.0356 27.261 30.9051 26.4267 29.7585L18 18.1089Z" fill="#6A5EB9"/>
</svg>
