<svg width="54" height="54" viewBox="0 0 54 54" fill="none" xmlns="http://www.w3.org/2000/svg">
<g clip-path="url(#clip0)">
<path d="M27 30.7059L10.2706 21.1479L0.0465698 26.9534L27 42.3529L53.9534 26.9534L43.7294 21.1479L27 30.7059Z" fill="#5036F5"/>
<path d="M27 42.353L10.2706 32.795L0.0465698 38.6005L27 54L53.9534 38.6005L43.7294 32.795L27 42.353Z" fill="#556080"/>
<path d="M42.3995 23.2941C42.9843 23.2941 43.4583 22.8201 43.4583 22.2353C43.4583 21.6505 42.9843 21.1765 42.3995 21.1765C41.8147 21.1765 41.3407 21.6505 41.3407 22.2353C41.3407 22.8201 41.8147 23.2941 42.3995 23.2941Z" fill="#6A5EB9"/>
<path d="M45.576 26.4706C46.1608 26.4706 46.6349 25.9966 46.6349 25.4118C46.6349 24.827 46.1608 24.353 45.576 24.353C44.9913 24.353 44.5172 24.827 44.5172 25.4118C44.5172 25.9966 44.9913 26.4706 45.576 26.4706Z" fill="#6A5EB9"/>
<path d="M10.6348 23.2941C11.2196 23.2941 11.6936 22.8201 11.6936 22.2353C11.6936 21.6505 11.2196 21.1765 10.6348 21.1765C10.05 21.1765 9.57599 21.6505 9.57599 22.2353C9.57599 22.8201 10.05 23.2941 10.6348 23.2941Z" fill="#6A5EB9"/>
<path d="M39.2231 26.4706C39.8078 26.4706 40.2819 25.9966 40.2819 25.4118C40.2819 24.827 39.8078 24.353 39.2231 24.353C38.6383 24.353 38.1642 24.827 38.1642 25.4118C38.1642 25.9966 38.6383 26.4706 39.2231 26.4706Z" fill="#6A5EB9"/>
<path d="M7.45836 26.4706C8.04313 26.4706 8.51718 25.9966 8.51718 25.4118C8.51718 24.827 8.04313 24.353 7.45836 24.353C6.87359 24.353 6.39954 24.827 6.39954 25.4118C6.39954 25.9966 6.87359 26.4706 7.45836 26.4706Z" fill="#6A5EB9"/>
<path d="M13.8113 26.4706C14.3961 26.4706 14.8701 25.9966 14.8701 25.4118C14.8701 24.827 14.3961 24.353 13.8113 24.353C13.2266 24.353 12.7525 24.827 12.7525 25.4118C12.7525 25.9966 13.2266 26.4706 13.8113 26.4706Z" fill="#6A5EB9"/>
<path d="M10.6348 29.6471C11.2196 29.6471 11.6936 29.173 11.6936 28.5882C11.6936 28.0035 11.2196 27.5294 10.6348 27.5294C10.05 27.5294 9.57599 28.0035 9.57599 28.5882C9.57599 29.173 10.05 29.6471 10.6348 29.6471Z" fill="#6A5EB9"/>
<path d="M16.9878 29.6471C17.5726 29.6471 18.0466 29.173 18.0466 28.5882C18.0466 28.0035 17.5726 27.5294 16.9878 27.5294C16.403 27.5294 15.929 28.0035 15.929 28.5882C15.929 29.173 16.403 29.6471 16.9878 29.6471Z" fill="#6A5EB9"/>
<path d="M16.9878 36C17.5726 36 18.0466 35.5259 18.0466 34.9412C18.0466 34.3564 17.5726 33.8824 16.9878 33.8824C16.403 33.8824 15.929 34.3564 15.929 34.9412C15.929 35.5259 16.403 36 16.9878 36Z" fill="#6A5EB9"/>
<path d="M13.8113 32.8236C14.3961 32.8236 14.8701 32.3495 14.8701 31.7647C14.8701 31.18 14.3961 30.7059 13.8113 30.7059C13.2266 30.7059 12.7525 31.18 12.7525 31.7647C12.7525 32.3495 13.2266 32.8236 13.8113 32.8236Z" fill="#6A5EB9"/>
<path d="M20.1642 32.8236C20.749 32.8236 21.2231 32.3495 21.2231 31.7647C21.2231 31.18 20.749 30.7059 20.1642 30.7059C19.5795 30.7059 19.1054 31.18 19.1054 31.7647C19.1054 32.3495 19.5795 32.8236 20.1642 32.8236Z" fill="#6A5EB9"/>
<path d="M23.3407 36C23.9255 36 24.3995 35.5259 24.3995 34.9412C24.3995 34.3564 23.9255 33.8824 23.3407 33.8824C22.7559 33.8824 22.2819 34.3564 22.2819 34.9412C22.2819 35.5259 22.7559 36 23.3407 36Z" fill="#6A5EB9"/>
<path d="M29.6937 36C30.2784 36 30.7525 35.5259 30.7525 34.9412C30.7525 34.3564 30.2784 33.8824 29.6937 33.8824C29.1089 33.8824 28.6348 34.3564 28.6348 34.9412C28.6348 35.5259 29.1089 36 29.6937 36Z" fill="#6A5EB9"/>
<path d="M26.5172 32.8236C27.102 32.8236 27.576 32.3495 27.576 31.7647C27.576 31.18 27.102 30.7059 26.5172 30.7059C25.9324 30.7059 25.4584 31.18 25.4584 31.7647C25.4584 32.3495 25.9324 32.8236 26.5172 32.8236Z" fill="#6A5EB9"/>
<path d="M32.8701 32.8236C33.4549 32.8236 33.9289 32.3495 33.9289 31.7647C33.9289 31.18 33.4549 30.7059 32.8701 30.7059C32.2853 30.7059 31.8113 31.18 31.8113 31.7647C31.8113 32.3495 32.2853 32.8236 32.8701 32.8236Z" fill="#6A5EB9"/>
<path d="M26.5172 39.1765C27.102 39.1765 27.576 38.7024 27.576 38.1177C27.576 37.5329 27.102 37.0588 26.5172 37.0588C25.9324 37.0588 25.4584 37.5329 25.4584 38.1177C25.4584 38.7024 25.9324 39.1765 26.5172 39.1765Z" fill="#6A5EB9"/>
<path d="M36.0466 29.6471C36.6314 29.6471 37.1054 29.173 37.1054 28.5882C37.1054 28.0035 36.6314 27.5294 36.0466 27.5294C35.4618 27.5294 34.9878 28.0035 34.9878 28.5882C34.9878 29.173 35.4618 29.6471 36.0466 29.6471Z" fill="#6A5EB9"/>
<path d="M42.3995 29.6471C42.9843 29.6471 43.4583 29.173 43.4583 28.5882C43.4583 28.0035 42.9843 27.5294 42.3995 27.5294C41.8147 27.5294 41.3407 28.0035 41.3407 28.5882C41.3407 29.173 41.8147 29.6471 42.3995 29.6471Z" fill="#6A5EB9"/>
<path d="M36.0466 36C36.6314 36 37.1054 35.5259 37.1054 34.9412C37.1054 34.3564 36.6314 33.8824 36.0466 33.8824C35.4618 33.8824 34.9878 34.3564 34.9878 34.9412C34.9878 35.5259 35.4618 36 36.0466 36Z" fill="#6A5EB9"/>
<path d="M39.2231 32.8236C39.8078 32.8236 40.2819 32.3495 40.2819 31.7647C40.2819 31.18 39.8078 30.7059 39.2231 30.7059C38.6383 30.7059 38.1642 31.18 38.1642 31.7647C38.1642 32.3495 38.6383 32.8236 39.2231 32.8236Z" fill="#6A5EB9"/>
<path d="M48.7525 29.6471C49.3373 29.6471 49.8113 29.173 49.8113 28.5882C49.8113 28.0035 49.3373 27.5294 48.7525 27.5294C48.1677 27.5294 47.6937 28.0035 47.6937 28.5882C47.6937 29.173 48.1677 29.6471 48.7525 29.6471Z" fill="#6A5EB9"/>
<path d="M53.9534 15.3064L27 30.7059L0.0465698 15.3064L27 0L53.9534 15.3064Z" fill="#9584FF"/>
</g>
<defs>
<clipPath id="clip0">
<rect width="54" height="54" fill="white"/>
</clipPath>
</defs>
</svg>
