<svg width="34" height="24" viewBox="0 0 34 24" fill="none" xmlns="http://www.w3.org/2000/svg">
<path d="M33.537 10.8822L23.4191 0.764347C22.8018 0.147032 21.8007 0.147032 21.1833 0.764347C20.5659 1.38179 20.5659 2.3827 21.1833 3.00014L28.6024 10.4192H1.58091C0.70787 10.4192 0 11.127 0 12.0001C0 12.873 0.70787 13.581 1.58091 13.581H28.6024L21.1836 21C20.5662 21.6175 20.5662 22.6184 21.1836 23.2358C21.4922 23.5443 21.8969 23.6988 22.3015 23.6988C22.7061 23.6988 23.1107 23.5443 23.4194 23.2358L33.537 13.118C34.1544 12.5005 34.1544 11.4996 33.537 10.8822Z" fill="#5036F5"/>
</svg>
