<svg width="16" height="9" viewBox="0 0 16 9" fill="none" xmlns="http://www.w3.org/2000/svg">
<path d="M8 0C4.94303 0 2.17081 1.57824 0.125192 4.14173C-0.0417306 4.35175 -0.0417306 4.64516 0.125192 4.85518C2.17081 7.42176 4.94303 9 8 9C11.057 9 13.8292 7.42176 15.8748 4.85827C16.0417 4.64825 16.0417 4.35484 15.8748 4.14482C13.8292 1.57824 11.057 0 8 0ZM8.21929 7.66884C6.19004 7.78929 4.51427 6.21105 4.64191 4.29307C4.74665 2.71174 6.10494 1.42999 7.78071 1.33116C9.80996 1.21071 11.4857 2.78895 11.3581 4.70693C11.2501 6.28517 9.89179 7.56692 8.21929 7.66884ZM8.11783 6.20487C7.02465 6.26973 6.12131 5.42038 6.19331 4.38881C6.24895 3.53638 6.9821 2.84763 7.88545 2.79204C8.97862 2.72718 9.88197 3.57653 9.80996 4.6081C9.75105 5.46362 9.0179 6.15237 8.11783 6.20487Z" fill="var(--color-primary)"/>
</svg>
