<svg width="92" height="82" viewBox="0 0 92 82" fill="none" xmlns="http://www.w3.org/2000/svg">
<path d="M87.2823 0.396729H58.5982C55.994 0.396729 53.8804 2.51029 53.8804 5.1145V33.7986C53.8804 36.4029 55.994 38.5163 58.5982 38.5163H72.3269C72.1476 46.0271 70.4021 52.0375 67.0996 56.5571C64.4954 60.1237 60.5514 63.0771 55.2769 65.4077C52.8519 66.4739 51.8046 69.3423 52.9368 71.739L56.3336 78.91C57.4282 81.2122 60.1362 82.2219 62.4762 81.2122C68.7225 78.5136 73.9971 75.098 78.2996 70.9463C83.5459 65.8794 87.1407 60.1615 89.0844 53.7831C91.0283 47.4046 92 38.7051 92 27.6655V5.1145C92 2.51039 89.8864 0.396729 87.2823 0.396729Z" fill="#F0F0F0"/>
<path d="M10.0051 81.1933C16.1759 78.5042 21.4221 75.0886 25.753 70.9463C31.0464 65.8794 34.6602 60.1804 36.6039 53.8491C38.5476 47.5179 39.5194 38.79 39.5194 27.6655V5.1145C39.5194 2.51029 37.4059 0.396729 34.8016 0.396729H6.11755C3.51334 0.396729 1.39978 2.51029 1.39978 5.1145V33.7986C1.39978 36.4029 3.51334 38.5163 6.11755 38.5163H19.8463C19.667 46.0271 17.9214 52.0375 14.619 56.5571C12.0148 60.1237 8.07071 63.0771 2.79624 65.4077C0.371301 66.4739 -0.676045 69.3423 0.456221 71.739L3.84358 78.8912C4.9382 81.1933 7.66508 82.2125 10.0051 81.1933Z" fill="#F0F0F0"/>
</svg>
