<svg width="27" height="27" viewBox="0 0 27 27" fill="none" xmlns="http://www.w3.org/2000/svg">
<path d="M25.24 10.0412C24.2815 8.93004 22.9587 8.20958 21.3663 7.92023C22.8908 6.89138 24.2058 5.86749 25.1434 4.97406C26.573 3.61188 27.0524 2.65465 26.6521 1.96177C26.2067 1.19006 24.921 1.19538 22.6057 1.9787C20.6494 2.64052 18.2123 3.78997 15.7435 5.21538C15.317 5.46154 14.8946 5.71361 14.4812 5.96763C14.1747 5.10189 14.3769 4.11297 15.0532 3.25545C15.5599 2.61315 15.673 1.79735 15.3485 1.1263C15.0084 0.422982 14.2619 0.00189844 13.3503 0H13.3256C10.1084 0 6.96173 1.26937 4.46513 3.57428C1.96541 5.88204 0.435061 8.93705 0.15599 12.1765C-0.17977 16.0778 1.06729 19.7868 3.66736 22.6203C6.2215 25.4037 9.84251 27 13.6019 27C15.6258 27 17.5259 26.6297 19.2491 25.8993C20.8248 25.2314 22.224 24.2777 23.408 23.0647C24.5058 21.9399 25.3713 20.6451 25.9805 19.2162C26.5603 17.8565 26.877 16.4156 26.8966 15.0493C26.9252 13.0624 26.3523 11.3306 25.24 10.0412ZM14.5429 7.17124C15.101 6.81924 15.6823 6.4685 16.2708 6.12879C18.5534 4.81085 20.8265 3.72531 22.6713 3.07209C24.7021 2.35306 25.5336 2.39999 25.7274 2.49281C25.7107 2.61552 25.5582 3.16148 24.2256 4.38871C23.1128 5.4135 21.4878 6.61864 19.6499 7.78212C19.069 8.15005 18.4643 8.51571 17.8529 8.86881C17.0099 9.35534 16.1676 9.81028 15.3409 10.2268C15.1759 9.74542 14.9645 9.27824 14.7072 8.83253C14.4578 8.40059 14.1686 7.99506 13.8453 7.61985C14.0741 7.46988 14.3069 7.3199 14.5429 7.17124ZM14.3854 10.6946C12.8964 11.4008 11.53 11.9392 10.4389 12.2515C10.3821 11.9787 10.2822 11.715 10.1405 11.4694C10.0062 11.2365 9.83771 11.0284 9.64296 10.8489C10.4598 10.0606 11.6095 9.1472 12.9633 8.2128C13.2776 8.56406 13.5563 8.94829 13.7938 9.35977C14.0395 9.78534 14.2373 10.2329 14.3854 10.6946ZM25.8421 15.0341C25.7669 20.2816 21.0658 25.9453 13.6019 25.9453C10.1371 25.9453 6.79942 24.4735 4.44451 21.9072C2.04652 19.294 0.89675 15.8704 1.20683 12.267C1.73939 6.08449 7.17583 1.05469 13.3256 1.05469H13.3492C13.8537 1.05574 14.2364 1.24917 14.399 1.58546C14.5485 1.89459 14.4835 2.2747 14.2251 2.60228C13.2747 3.80726 13.0363 5.28926 13.5733 6.5388C13.2906 6.72094 13.0127 6.90388 12.7443 7.08534C12.743 7.08618 12.7417 7.08703 12.7405 7.08787C11.0636 8.21939 9.6476 9.3449 8.70545 10.2921C7.9909 10.0478 7.20579 10.119 6.53849 10.5042C5.44288 11.1371 4.00428 14.0862 3.72706 14.671C3.65281 14.8275 3.66024 15.0106 3.74683 15.1606C3.83348 15.3106 3.98825 15.4086 4.1609 15.4226C4.45237 15.4462 5.28003 15.5059 6.20125 15.5059C7.31911 15.5059 8.57461 15.4179 9.17526 15.071C9.8259 14.6954 10.2769 14.0679 10.4331 13.3465C11.7263 13.007 13.4159 12.343 15.2459 11.4514C16.2712 10.9523 17.3257 10.3908 18.3802 9.78223C18.9151 9.47331 19.4439 9.15485 19.9579 8.83364C19.961 8.8338 19.964 8.83427 19.9671 8.83438C24.3624 8.96041 25.8839 12.1196 25.8421 15.0341ZM9.4364 12.8867C9.40265 13.417 9.10797 13.8921 8.64791 14.1577C8.14921 14.4457 6.43597 14.4846 5.02928 14.4202C5.67659 13.1702 6.5667 11.706 7.06594 11.4176C7.53728 11.1455 8.10712 11.1336 8.59059 11.3858C8.85632 11.5242 9.07633 11.7353 9.22694 11.9964C9.38361 12.268 9.45602 12.5758 9.4364 12.8867Z" fill="white"/>
</svg>
