<svg width="27" height="27" viewBox="0 0 27 27" fill="none" xmlns="http://www.w3.org/2000/svg">
<g clip-path="url(#clip0)">
<path d="M13.4765 20.9477C13.3437 21.0799 13.3239 21.2334 13.3239 21.3133C13.3239 21.3931 13.3437 21.5467 13.4765 21.679L17.0153 25.2004C17.4277 25.6106 17.4291 26.2774 17.019 26.6898C16.8132 26.8964 16.5429 27 16.2725 27C16.0039 27 15.735 26.8978 15.5297 26.6935L11.9909 23.1718C11.4922 22.6758 11.2176 22.0158 11.2176 21.3133C11.2176 20.6109 11.4922 19.9509 11.9909 19.4549L15.5297 15.9332C15.9418 15.5231 16.6087 15.5247 17.019 15.9369C17.4291 16.3493 17.4277 17.0159 17.0153 17.4262L13.4765 20.9477ZM24.7666 19.4139L21.2276 15.8924C20.8155 15.4821 20.1487 15.4837 19.7383 15.8959C19.3282 16.3083 19.3298 16.9751 19.742 17.3852L23.2808 20.9067C23.4137 21.039 23.4334 21.1926 23.4334 21.2723C23.4334 21.3521 23.4137 21.5057 23.2808 21.638L19.742 25.1594C19.3298 25.5698 19.3282 26.2366 19.7383 26.6488C19.9441 26.8556 20.2146 26.959 20.4848 26.959C20.7534 26.959 21.0223 26.8568 21.2276 26.6525L24.7666 23.1308C25.2651 22.6348 25.5397 21.9748 25.5397 21.2723C25.5397 20.5699 25.2651 19.9101 24.7666 19.4139ZM20.7423 4.21236V12.4264C20.7423 13.0081 21.2136 13.4796 21.7954 13.4796C22.3769 13.4796 22.8484 13.0081 22.8484 12.4264V4.21236C22.8484 1.88958 20.9588 0 18.636 0H9.07299C7.98184 0 6.91562 0.444328 6.14767 1.21928L2.67009 4.72776C1.9005 5.50415 1.47656 6.53391 1.47656 7.62733V22.7466C1.47656 25.0694 3.36614 26.959 5.68893 26.959H10.6385C11.2201 26.959 11.6916 26.4877 11.6916 25.906C11.6916 25.3244 11.2201 24.8529 10.6385 24.8529H5.68893C4.52753 24.8529 3.58264 23.908 3.58264 22.7466V8.89851H6.68944C8.72177 8.89851 10.3751 7.24521 10.3751 5.21288C10.3751 4.63115 9.90376 4.15963 9.32204 4.15963C8.74052 4.15963 8.269 4.63115 8.269 5.21288C8.269 6.08382 7.56038 6.79243 6.68944 6.79243H3.7635C3.86094 6.57882 3.99607 6.38189 4.16602 6.2105L7.6436 2.70202C8.01871 2.3234 8.53988 2.10608 9.07299 2.10608H18.636C19.7974 2.10608 20.7423 3.05097 20.7423 4.21236Z" fill="white"/>
</g>
<defs>
<clipPath id="clip0">
<rect width="27" height="27" fill="white"/>
</clipPath>
</defs>
</svg>
