<svg width="27" height="27" viewBox="0 0 27 27" fill="none" xmlns="http://www.w3.org/2000/svg">
<path d="M24.5913 0H12.2711C10.9626 0 9.89803 1.06455 9.89803 2.37305V9.41182L8.12557 11.1843C8.08934 10.5018 7.73154 9.84704 7.10833 9.45986C6.09593 8.831 4.76075 9.14303 4.13205 10.1553L2.02658 13.5445C-0.0458824 16.4064 0.0326917 20.1752 0.0370687 20.3346C0.0426058 20.5368 0.125451 20.7292 0.268467 20.8723L6.15521 26.759C6.30508 26.9088 6.50689 26.9907 6.71451 26.9907C6.76777 26.9907 6.82135 26.9852 6.87461 26.9743L10.5153 26.2218C10.9498 26.6996 11.576 26.9999 12.2711 26.9999H24.5913C25.8998 26.9999 26.9644 25.9354 26.9644 24.6269V2.37305C26.9643 1.06455 25.8998 0 24.5913 0ZM3.35517 14.4038L5.47583 10.9901C5.64426 10.7188 6.00212 10.6353 6.27349 10.8037C6.54481 10.9723 6.62839 11.3301 6.45991 11.6015L4.50182 14.7535C4.32712 15.0347 4.34605 15.395 4.54918 15.6564L4.58583 15.7036C4.7251 15.8827 4.93456 15.9934 5.16106 16.0076C5.38697 16.0218 5.60919 15.9379 5.76967 15.7774L14.0878 7.45928C14.3136 7.23347 14.6811 7.23342 14.907 7.45928C15.1328 7.68514 15.1328 8.05264 14.907 8.27851L11.3329 11.8526L9.99912 13.1864C9.6902 13.4953 9.6902 13.9961 9.99912 14.305C10.1536 14.4595 10.356 14.5367 10.5584 14.5367C10.7608 14.5367 10.9633 14.4595 11.1177 14.305L12.4515 12.9712C12.6773 12.7455 13.0448 12.7454 13.2707 12.9712C13.4965 13.1971 13.4965 13.5646 13.2707 13.7905L12.8559 14.2053C12.8558 14.2054 12.8557 14.2054 12.8556 14.2055L11.8773 15.1838C11.5684 15.4927 11.5684 15.9935 11.8773 16.3025C12.0318 16.4569 12.2342 16.5342 12.4366 16.5342C12.639 16.5342 12.8415 16.4569 12.9959 16.3025L13.9742 15.3242C13.9743 15.3242 13.9743 15.3241 13.9743 15.3241C14.2003 15.0984 14.5676 15.0985 14.7934 15.3242C14.9028 15.4336 14.9631 15.5791 14.9631 15.7338C14.9631 15.8885 14.9028 16.034 14.7934 16.1434L14.2998 16.637L13.4496 17.4872C13.1407 17.7961 13.1407 18.2969 13.4496 18.6058C13.6041 18.7603 13.8065 18.8375 14.0089 18.8375C14.2113 18.8375 14.4138 18.7603 14.5682 18.6058L15.4182 17.7559C15.4182 17.7558 15.4183 17.7557 15.4184 17.7556C15.6443 17.5298 16.0118 17.5298 16.2377 17.7556C16.347 17.865 16.4073 18.0105 16.4073 18.1652C16.4073 18.3199 16.347 18.4654 16.2377 18.5748L16.2377 18.5748L10.1236 24.6873L6.97217 25.3387L1.62184 19.9884C1.64932 19.1035 1.85778 16.4593 3.32221 14.4527C3.33381 14.4368 3.34483 14.4205 3.35517 14.4038ZM12.2711 1.58203H24.5913C25.0275 1.58203 25.3823 1.93688 25.3823 2.37305V19.963H17.0869L17.3565 19.6935L17.3565 19.6935C17.7647 19.2853 17.9895 18.7425 17.9895 18.1653C17.9895 17.588 17.7647 17.0452 17.3565 16.637C17.1152 16.3956 16.8269 16.2185 16.5121 16.1139C16.5146 16.0999 16.5165 16.0857 16.5187 16.0716H22.2778C23.4206 16.0716 24.3503 15.1419 24.3503 13.9992C24.3503 12.8564 23.4206 11.9267 22.2778 11.9267H20.7881C20.3512 11.9267 19.9971 12.2809 19.9971 12.7177C19.9971 13.1546 20.3512 13.5088 20.7881 13.5088H22.2778C22.5483 13.5088 22.7683 13.7288 22.7683 13.9992C22.7683 14.2696 22.5483 14.4896 22.2778 14.4896H16.1511C16.0802 14.3894 16.0008 14.2941 15.9123 14.2056C15.6499 13.9432 15.3361 13.7625 15.0031 13.6635C15.0872 13.0201 14.8827 12.3459 14.3895 11.8526C14.2477 11.7108 14.0909 11.5929 13.9242 11.4988L16.0258 9.39716C16.8685 8.55452 16.8685 7.18337 16.0258 6.34068C15.1832 5.49793 13.812 5.49798 12.9693 6.34068L11.4801 7.82989V2.37305C11.4801 1.93688 11.8349 1.58203 12.2711 1.58203ZM11.7928 25.2555L15.5044 21.545H25.3823V24.627C25.3823 25.0631 25.0274 25.418 24.5913 25.418H12.2711C12.0913 25.418 11.9258 25.357 11.7928 25.2555Z" fill="white"/>
<path d="M19.2824 22.5175H17.58C17.1432 22.5175 16.789 22.8716 16.789 23.3085C16.789 23.7453 17.1432 24.0995 17.58 24.0995H19.2824C19.7193 24.0995 20.0735 23.7453 20.0735 23.3085C20.0735 22.8716 19.7193 22.5175 19.2824 22.5175Z" fill="white"/>
<path d="M17.7016 7.58917L20.0613 11.1811C20.2075 11.4038 20.456 11.5378 20.7224 11.5378C20.9888 11.5378 21.2373 11.4038 21.3835 11.1811L23.7432 7.58917C23.7596 7.56423 23.7745 7.53834 23.788 7.5117C24.3283 6.44294 24.2762 5.19582 23.6488 4.17567C23.0194 3.15236 21.9254 2.54138 20.7224 2.54138C19.5194 2.54138 18.4254 3.15231 17.796 4.17567C17.1686 5.19582 17.1165 6.44299 17.6568 7.5117C17.6702 7.53834 17.6853 7.56423 17.7016 7.58917ZM20.7224 4.12341C21.3717 4.12341 21.9619 4.45279 22.3011 5.00445C22.6314 5.54134 22.6652 6.19503 22.3942 6.76129L20.7224 9.30615L19.0506 6.76129C18.7795 6.19503 18.8134 5.54128 19.1436 5.00445C19.4829 4.45274 20.0731 4.12341 20.7224 4.12341Z" fill="white"/>
</svg>
