<svg width="27" height="27" viewBox="0 0 27 27" fill="none" xmlns="http://www.w3.org/2000/svg">
<g clip-path="url(#clip0)">
<path d="M26.4375 25.875H0.562518C0.252018 25.875 0 26.127 0 26.4375C0 26.748 0.252018 27 0.562518 27H26.4375C26.748 27 27.0001 26.748 27.0001 26.4375C27 26.127 26.748 25.875 26.4375 25.875Z" fill="white"/>
<path d="M5.06252 19.125H1.68752C1.37702 19.125 1.125 19.377 1.125 19.6875V26.4375C1.125 26.748 1.37702 27 1.68752 27H5.06252C5.37302 27 5.62504 26.748 5.62504 26.4375V19.6875C5.62504 19.377 5.37302 19.125 5.06252 19.125ZM4.5 25.875H2.25004V20.25H4.50005V25.875H4.5Z" fill="white"/>
<path d="M11.8125 13.5H8.43752C8.12702 13.5 7.875 13.752 7.875 14.0625V26.4375C7.875 26.748 8.12702 27.0001 8.43752 27.0001H11.8125C12.123 27.0001 12.375 26.748 12.375 26.4375V14.0625C12.375 13.752 12.123 13.5 11.8125 13.5ZM11.25 25.875H8.99998V14.625H11.25V25.875Z" fill="white"/>
<path d="M18.5625 15.75H15.1875C14.877 15.75 14.625 16.002 14.625 16.3125V26.4375C14.625 26.748 14.877 27 15.1875 27H18.5625C18.873 27 19.125 26.748 19.125 26.4375V16.3125C19.125 16.002 18.873 15.75 18.5625 15.75ZM18 25.875H15.75V16.875H18V25.875Z" fill="white"/>
<path d="M25.3125 9H21.9375C21.627 9 21.375 9.25202 21.375 9.56252V26.4375C21.375 26.748 21.627 27 21.9375 27H25.3125C25.623 27 25.875 26.748 25.875 26.4375V9.56252C25.875 9.25196 25.623 9 25.3125 9ZM24.75 25.875H22.5V10.125H24.75V25.875Z" fill="white"/>
<path d="M3.37502 10.125C2.13412 10.125 1.125 11.1341 1.125 12.375C1.125 13.6159 2.13412 14.625 3.37502 14.625C4.61591 14.625 5.62504 13.6159 5.62504 12.375C5.62504 11.1341 4.61591 10.125 3.37502 10.125ZM3.37502 13.5C2.75402 13.5 2.25004 12.9949 2.25004 12.375C2.25004 11.7551 2.75402 11.25 3.37502 11.25C3.99602 11.25 4.5 11.7552 4.5 12.375C4.5 12.9949 3.99602 13.5 3.37502 13.5Z" fill="white"/>
<path d="M10.125 4.5C8.88413 4.5 7.875 5.50912 7.875 6.75002C7.875 7.99091 8.88413 9.00003 10.125 9.00003C11.3659 9.00003 12.375 7.99091 12.375 6.75002C12.375 5.50912 11.3659 4.5 10.125 4.5ZM10.125 7.875C9.50402 7.875 9.00004 7.36986 9.00004 6.75002C9.00004 6.13012 9.50402 5.62503 10.125 5.62503C10.746 5.62503 11.25 6.13018 11.25 6.75002C11.25 7.36991 10.746 7.875 10.125 7.875Z" fill="white"/>
<path d="M16.875 6.75C15.6341 6.75 14.625 7.75913 14.625 9.00002C14.625 10.2409 15.6341 11.25 16.875 11.25C18.1159 11.25 19.125 10.2409 19.125 9.00002C19.125 7.75913 18.1159 6.75 16.875 6.75ZM16.875 10.125C16.254 10.125 15.75 9.61986 15.75 9.00002C15.75 8.38013 16.254 7.87504 16.875 7.87504C17.496 7.87504 18 8.38018 18 9.00002C18 9.61986 17.496 10.125 16.875 10.125Z" fill="white"/>
<path d="M23.625 0C22.3841 0 21.375 1.00912 21.375 2.25002C21.375 3.49091 22.3841 4.50004 23.625 4.50004C24.8659 4.50004 25.875 3.49091 25.875 2.25002C25.875 1.00912 24.8659 0 23.625 0ZM23.625 3.375C23.004 3.375 22.5 2.86986 22.5 2.25002C22.5 1.63012 23.004 1.12504 23.625 1.12504C24.246 1.12504 24.75 1.63018 24.75 2.25002C24.75 2.86986 24.246 3.375 23.625 3.375Z" fill="white"/>
<path d="M22.8308 3.04429C22.6114 2.82492 22.2547 2.82492 22.0354 3.04429L17.6704 7.40928C17.451 7.62865 17.451 7.98529 17.6704 8.20467C17.7807 8.31378 17.9246 8.36894 18.0686 8.36894C18.2115 8.36894 18.3555 8.31494 18.4658 8.20467L22.8308 3.83968C23.0501 3.62031 23.0501 3.26367 22.8308 3.04429Z" fill="white"/>
<path d="M15.5149 7.70167L11.9014 6.67119C11.5988 6.58344 11.2916 6.75894 11.2073 7.05821C11.1218 7.35747 11.295 7.66797 11.5931 7.75346L15.2066 8.78394C15.2584 8.79855 15.3101 8.8053 15.3608 8.8053C15.606 8.8053 15.831 8.6444 15.9019 8.39692C15.9874 8.09881 15.8142 7.78715 15.5149 7.70167Z" fill="white"/>
<path d="M9.24753 7.45088C9.05405 7.20788 8.70078 7.16849 8.45778 7.36087L4.21651 10.7426C3.97351 10.9373 3.93301 11.2905 4.12765 11.5335C4.23903 11.673 4.4033 11.745 4.56751 11.745C4.69012 11.745 4.81389 11.7045 4.9174 11.6235L9.15867 8.24174C9.40167 8.0471 9.44217 7.69388 9.24753 7.45088Z" fill="white"/>
</g>
<defs>
<clipPath id="clip0">
<rect width="27" height="27" fill="white"/>
</clipPath>
</defs>
</svg>
