<svg width="594" height="238" viewBox="0 0 594 238" fill="none" xmlns="http://www.w3.org/2000/svg">
<path d="M23.04 57.96C39.04 57.96 46.8 49.96 46.8 40.6C46.8 20.04 14.24 27.16 14.24 16.84C14.24 13.32 17.2 10.44 24.88 10.44C29.84 10.44 35.2 11.88 40.4 14.84L44.4 5C39.2 1.72 32 0.039999 24.96 0.039999C9.04 0.039999 1.36 7.96 1.36 17.48C1.36 38.28 33.92 31.08 33.92 41.56C33.92 45 30.8 47.56 23.12 47.56C16.4 47.56 9.36 45.16 4.64 41.72L0.24 51.48C5.2 55.32 14.16 57.96 23.04 57.96ZM97.4956 57H111.096L86.0556 0.999996H73.2556L48.2956 57H61.5756L66.5356 45H92.5356L97.4956 57ZM70.6956 35.16L79.5756 13.72L88.4556 35.16H70.6956ZM154.819 0.999996L137.539 41L120.499 0.999996H106.499L130.659 57H143.459L167.699 0.999996H154.819ZM185.254 46.6V33.64H211.254V23.56H185.254V11.4H214.694V0.999996H172.374V57H215.734V46.6H185.254ZM28.88 61H4.64V117H17.6V101.56H28.88C43.84 101.56 53.2 93.8 53.2 81.32C53.2 68.76 43.84 61 28.88 61ZM28.16 91H17.6V71.56H28.16C36.08 71.56 40.08 75.16 40.08 81.32C40.08 87.4 36.08 91 28.16 91ZM62.4525 117H103.493V106.44H75.4125V61H62.4525V117ZM153.043 117H166.643L141.603 61H128.803L103.842 117H117.123L122.083 105H148.083L153.043 117ZM126.243 95.16L135.123 73.72L144.003 95.16H126.243ZM211.012 61V95L183.173 61H172.453V117H185.253V83L213.173 117H223.813V61H211.012ZM249.942 106.6V93.64H275.942V83.56H249.942V71.4H279.382V61H237.062V117H280.422V106.6H249.942ZM302.334 117H315.294V71.56H333.214V61H284.414V71.56H302.334V117ZM341.371 117.64C345.691 117.64 349.131 114.36 349.131 109.8C349.131 105.16 345.691 102.12 341.371 102.12C337.051 102.12 333.611 105.16 333.611 109.8C333.611 114.36 337.051 117.64 341.371 117.64Z" fill="#1DF28B"/>
<path d="M31.44 177.96C41.2 177.96 49.28 174.44 54.56 167.96L46.24 160.28C42.48 164.68 37.76 166.92 32.16 166.92C21.68 166.92 14.24 159.56 14.24 149C14.24 138.44 21.68 131.08 32.16 131.08C37.76 131.08 42.48 133.32 46.24 137.64L54.56 129.96C49.28 123.56 41.2 120.04 31.52 120.04C14.08 120.04 1.12 132.12 1.12 149C1.12 165.88 14.08 177.96 31.44 177.96ZM112.912 177L100.352 159C107.632 155.88 111.872 149.72 111.872 141.32C111.872 128.76 102.512 121 87.5519 121H63.3119V177H76.2719V161.4H87.5519H88.1919L98.9919 177H112.912ZM98.7519 141.32C98.7519 147.4 94.7519 151.08 86.8319 151.08H76.2719V131.56H86.8319C94.7519 131.56 98.7519 135.16 98.7519 141.32ZM135.02 166.6V153.64H161.02V143.56H135.02V131.4H164.46V121H122.14V177H165.5V166.6H135.02ZM217.652 177H231.252L206.212 121H193.412L168.452 177H181.732L186.692 165H212.692L217.652 177ZM190.852 155.16L199.732 133.72L208.612 155.16H190.852ZM245.849 177H258.809V131.56H276.729V121H227.929V131.56H245.849V177ZM296.583 166.6V153.64H322.583V143.56H296.583V131.4H326.023V121H283.703V177H327.062V166.6H296.583ZM360.031 177H385.471C403.791 177 416.351 165.96 416.351 149C416.351 132.04 403.791 121 385.471 121H360.031V177ZM372.991 166.36V131.64H384.831C395.951 131.64 403.231 138.28 403.231 149C403.231 159.72 395.951 166.36 384.831 166.36H372.991ZM453.244 177.96C470.844 177.96 483.884 165.72 483.884 149C483.884 132.28 470.844 120.04 453.244 120.04C435.564 120.04 422.604 132.36 422.604 149C422.604 165.64 435.564 177.96 453.244 177.96ZM453.244 166.92C443.244 166.92 435.724 159.64 435.724 149C435.724 138.36 443.244 131.08 453.244 131.08C463.244 131.08 470.764 138.36 470.764 149C470.764 159.64 463.244 166.92 453.244 166.92ZM520.424 177.96C530.184 177.96 538.264 174.44 543.544 167.96L535.224 160.28C531.464 164.68 526.744 166.92 521.144 166.92C510.664 166.92 503.224 159.56 503.224 149C503.224 138.44 510.664 131.08 521.144 131.08C526.744 131.08 531.464 133.32 535.224 137.64L543.544 129.96C538.264 123.56 530.184 120.04 520.504 120.04C503.064 120.04 490.104 132.12 490.104 149C490.104 165.88 503.064 177.96 520.424 177.96ZM570.228 177.96C586.228 177.96 593.988 169.96 593.988 160.6C593.988 140.04 561.428 147.16 561.428 136.84C561.428 133.32 564.388 130.44 572.068 130.44C577.028 130.44 582.388 131.88 587.588 134.84L591.588 125C586.388 121.72 579.188 120.04 572.148 120.04C556.228 120.04 548.548 127.96 548.548 137.48C548.548 158.28 581.108 151.08 581.108 161.56C581.108 165 577.988 167.56 570.308 167.56C563.588 167.56 556.548 165.16 551.828 161.72L547.428 171.48C552.388 175.32 561.348 177.96 570.228 177.96ZM303.635 237.96C321.235 237.96 334.275 225.72 334.275 209C334.275 192.28 321.235 180.04 303.635 180.04C285.955 180.04 272.995 192.36 272.995 209C272.995 225.64 285.955 237.96 303.635 237.96ZM303.635 226.92C293.635 226.92 286.115 219.64 286.115 209C286.115 198.36 293.635 191.08 303.635 191.08C313.635 191.08 321.155 198.36 321.155 209C321.155 219.64 313.635 226.92 303.635 226.92ZM382.575 181V215L354.735 181H344.015V237H356.815V203L384.735 237H395.375V181H382.575ZM408.624 237H449.664V226.44H421.584V181H408.624V237ZM456.906 237H469.866V181H456.906V237ZM521.716 181V215L493.876 181H483.156V237H495.956V203L523.876 237H534.516V181H521.716ZM560.645 226.6V213.64H586.645V203.56H560.645V191.4H590.085V181H547.765V237H591.125V226.6H560.645Z" fill="white"/>
</svg>
