<svg width="393" height="425" viewBox="0 0 393 425" fill="none" xmlns="http://www.w3.org/2000/svg">
<circle cx="106.5" cy="318.5" r="106.5" fill="#B7FDEC"/>
<circle cx="106.5" cy="318.5" r="106.5" fill="url(#paint0_radial)"/>
<line x1="138.5" y1="216.996" x2="139.553" y2="335.995" stroke="#6B62FB"/>
<line x1="139" y1="336.5" x2="213" y2="336.5" stroke="#6D65FB"/>
<rect x="162" width="231" height="326" fill="white"/>
<path d="M199.152 37.112H190.752L189.096 41H185.88L193.44 24.2H196.512L204.096 41H200.832L199.152 37.112ZM198.12 34.664L194.952 27.32L191.808 34.664H198.12ZM219.657 37.184H216.681V41H213.657V37.184H204.441V35.024L212.721 24.2H216.057L208.257 34.544H213.753V31.16H216.681V34.544H219.657V37.184ZM222.17 24.2H229.514C231.306 24.2 232.898 24.552 234.29 25.256C235.682 25.944 236.762 26.928 237.53 28.208C238.298 29.472 238.682 30.936 238.682 32.6C238.682 34.264 238.298 35.736 237.53 37.016C236.762 38.28 235.682 39.264 234.29 39.968C232.898 40.656 231.306 41 229.514 41H222.17V24.2ZM229.37 38.36C230.602 38.36 231.682 38.128 232.61 37.664C233.554 37.184 234.274 36.512 234.77 35.648C235.282 34.768 235.538 33.752 235.538 32.6C235.538 31.448 235.282 30.44 234.77 29.576C234.274 28.696 233.554 28.024 232.61 27.56C231.682 27.08 230.602 26.84 229.37 26.84H225.29V38.36H229.37ZM247.47 41.168C246.174 41.168 245.006 40.888 243.966 40.328C242.926 39.768 242.11 38.992 241.518 38C240.942 36.992 240.654 35.856 240.654 34.592C240.654 33.328 240.942 32.2 241.518 31.208C242.11 30.216 242.926 29.44 243.966 28.88C245.006 28.32 246.174 28.04 247.47 28.04C248.782 28.04 249.958 28.32 250.998 28.88C252.038 29.44 252.846 30.216 253.422 31.208C254.014 32.2 254.31 33.328 254.31 34.592C254.31 35.856 254.014 36.992 253.422 38C252.846 38.992 252.038 39.768 250.998 40.328C249.958 40.888 248.782 41.168 247.47 41.168ZM247.47 38.6C248.574 38.6 249.486 38.232 250.206 37.496C250.926 36.76 251.286 35.792 251.286 34.592C251.286 33.392 250.926 32.424 250.206 31.688C249.486 30.952 248.574 30.584 247.47 30.584C246.366 30.584 245.454 30.952 244.734 31.688C244.03 32.424 243.678 33.392 243.678 34.592C243.678 35.792 244.03 36.76 244.734 37.496C245.454 38.232 246.366 38.6 247.47 38.6ZM263.059 41.168C261.731 41.168 260.539 40.888 259.483 40.328C258.427 39.768 257.603 38.992 257.011 38C256.419 36.992 256.123 35.856 256.123 34.592C256.123 33.328 256.419 32.2 257.011 31.208C257.603 30.216 258.419 29.44 259.459 28.88C260.515 28.32 261.715 28.04 263.059 28.04C264.323 28.04 265.427 28.296 266.371 28.808C267.331 29.32 268.051 30.056 268.531 31.016L266.227 32.36C265.859 31.768 265.395 31.328 264.835 31.04C264.291 30.736 263.691 30.584 263.035 30.584C261.915 30.584 260.987 30.952 260.251 31.688C259.515 32.408 259.147 33.376 259.147 34.592C259.147 35.808 259.507 36.784 260.227 37.52C260.963 38.24 261.899 38.6 263.035 38.6C263.691 38.6 264.291 38.456 264.835 38.168C265.395 37.864 265.859 37.416 266.227 36.824L268.531 38.168C268.035 39.128 267.307 39.872 266.347 40.4C265.403 40.912 264.307 41.168 263.059 41.168ZM275.084 41.168C274.044 41.168 273.028 41.032 272.036 40.76C271.044 40.488 270.252 40.144 269.66 39.728L270.812 37.448C271.388 37.832 272.076 38.144 272.876 38.384C273.692 38.608 274.492 38.72 275.276 38.72C277.068 38.72 277.964 38.248 277.964 37.304C277.964 36.856 277.732 36.544 277.268 36.368C276.82 36.192 276.092 36.024 275.084 35.864C274.028 35.704 273.164 35.52 272.492 35.312C271.836 35.104 271.26 34.744 270.764 34.232C270.284 33.704 270.044 32.976 270.044 32.048C270.044 30.832 270.548 29.864 271.556 29.144C272.58 28.408 273.956 28.04 275.684 28.04C276.564 28.04 277.444 28.144 278.324 28.352C279.204 28.544 279.924 28.808 280.484 29.144L279.332 31.424C278.244 30.784 277.02 30.464 275.66 30.464C274.78 30.464 274.108 30.6 273.644 30.872C273.196 31.128 272.972 31.472 272.972 31.904C272.972 32.384 273.212 32.728 273.692 32.936C274.188 33.128 274.948 33.312 275.972 33.488C276.996 33.648 277.836 33.832 278.492 34.04C279.148 34.248 279.708 34.6 280.172 35.096C280.652 35.592 280.892 36.296 280.892 37.208C280.892 38.408 280.372 39.368 279.332 40.088C278.292 40.808 276.876 41.168 275.084 41.168Z" fill="#6C64FB"/>
<path d="M213 163.746C226.771 160.401 243.461 154.307 257.853 155.065C263.23 155.348 260.747 171.69 260.747 175.321C260.747 181.462 259.604 186.896 266.856 186.896C277.445 186.896 285.229 178.357 293.301 172.427C302.751 165.484 311.882 160.205 322.962 156.511" stroke="black" stroke-linecap="round" stroke-linejoin="round"/>
<defs>
<radialGradient id="paint0_radial" cx="0" cy="0" r="1" gradientUnits="userSpaceOnUse" gradientTransform="translate(139 337.5) rotate(110.376) scale(93.3408)">
<stop stop-color="#6B62FA" stop-opacity="0.37"/>
<stop offset="1" stop-color="white" stop-opacity="0"/>
</radialGradient>
</defs>
</svg>
