<svg width="96" height="75" viewBox="0 0 96 75" fill="none" xmlns="http://www.w3.org/2000/svg">
<path d="M22.04 0C9.93995 0 0.699951 8.36001 0.699951 21.12C0.699951 30.36 5.31995 36.96 12.36 40.04L2.89995 74.8H24.68L37.44 43.12C42.28 31.02 43.16 26.84 43.16 21.12C43.16 8.58001 34.36 0 22.04 0ZM73.96 0C61.86 0 52.62 8.36001 52.62 21.12C52.62 30.36 57.24 36.96 64.2799 40.04L54.82 74.8H76.6L89.36 43.12C94.2 31.02 95.08 26.84 95.08 21.12C95.08 8.58001 86.28 0 73.96 0Z" fill="var(--color-primary)"/>
</svg>
